<svg xmlns="http://www.w3.org/2000/svg" viewBox="0 0 6.71 5.98"><defs><style>.cls-1{fill:#b5b5b5;}</style></defs><title>Asset 3</title><g id="Layer_2" data-name="Layer 2"><g id="Layer_1-2" data-name="Layer 1"><path class="cls-1" d="M6.7,0A9.14,9.14,0,0,0,2.8,1.79,6.62,6.62,0,0,0,1.24,3.31a5.53,5.53,0,0,0-.53.91A12.92,12.92,0,0,0,.37,1.68,15.16,15.16,0,0,0,0,5.46V6l.49-.17A11,11,0,0,0,3.11,4.57,9.79,9.79,0,0,0,.74,5c.38-.41.72-.81,1.08-1.19s.88-1,1.37-1.53A9.7,9.7,0,0,1,4.83,1,8.38,8.38,0,0,1,6.71.07Z"/></g></g></svg>