<?xml version="1.0" encoding="UTF-8"?>
<svg width="40px" height="40px" viewBox="0 0 40 40" version="1.1" xmlns="http://www.w3.org/2000/svg" xmlns:xlink="http://www.w3.org/1999/xlink">
    <!-- Generator: Sketch 53.2 (72643) - https://sketchapp.com -->
    <title>icon-ae</title>
    <desc>Created with Sketch.</desc>
    <defs>
        <linearGradient x1="100%" y1="50%" x2="0%" y2="50%" id="linearGradient-1">
            <stop stop-color="#905CF4" offset="0%"></stop>
            <stop stop-color="#6758F3" offset="100%"></stop>
        </linearGradient>
    </defs>
    <g id="icon-ae" stroke="none" stroke-width="1" fill="none" fill-rule="evenodd">
        <g id="Adobe_After_Effects_CC_icon" fill="url(#linearGradient-1)" fill-rule="nonzero">
            <path d="M5,4 C4.44771525,4 4,4.44771525 4,5 L4,35 C4,35.5522847 4.44771525,36 5,36 L35,36 C35.5522847,36 36,35.5522847 36,35 L36,5 C36,4.44771525 35.5522847,4 35,4 L5,4 Z M5,0 L35,0 C37.7614237,-5.07265313e-16 40,2.23857625 40,5 L40,35 C40,37.7614237 37.7614237,40 35,40 L5,40 C2.23857625,40 3.38176876e-16,37.7614237 0,35 L0,5 C-3.38176876e-16,2.23857625 2.23857625,5.07265313e-16 5,0 Z M11.3,22.6495726 L9.98333333,27.7606838 C9.95,27.8974359 9.9,27.9487179 9.73333333,27.9487179 L7.28333333,27.9487179 C7.11666667,27.9487179 7.08333333,27.8974359 7.11666667,27.6923077 L11.85,10.7179487 C11.9333333,10.4102564 11.9833333,10.1709402 12.0166667,9.31623932 C12.0166667,9.1965812 12.0666667,9.14529915 12.15,9.14529915 L15.65,9.14529915 C15.7666667,9.14529915 15.8166667,9.17948718 15.85,9.31623932 L21.15,27.7264957 C21.1833333,27.8632479 21.15,27.9487179 21.0166667,27.9487179 L18.2666667,27.9487179 C18.1333333,27.9487179 18.05,27.8974359 18.0166667,27.7777778 L16.6333333,22.6495726 L11.3,22.6495726 Z M15.9833333,19.8803419 C15.5166667,17.982906 14.3833333,13.8461538 13.9666667,11.8461538 L13.9333333,11.8461538 C13.5833333,13.8461538 12.6666667,17.2307692 11.9833333,19.8803419 C12,19.8803419 15.9833333,19.8803419 15.9833333,19.8803419 Z M24.9166667,21.6239316 C24.95,23.9316239 26.0166667,25.4871795 28.55,25.4871795 C29.5333333,25.4871795 30.3833333,25.3504274 31.2666667,24.957265 C31.3833333,24.9059829 31.4666667,24.9230769 31.4666667,25.0769231 L31.4666667,27.2136752 C31.4666667,27.3846154 31.4166667,27.4700855 31.3,27.5555556 C30.4166667,28 29.3166667,28.2051282 27.95,28.2051282 C23.55,28.2051282 21.9,24.8717949 21.9,21.1452991 C21.9,17.1111111 23.9333333,13.8119658 27.5166667,13.8119658 C31.15,13.8119658 32.4166667,16.9401709 32.4166667,19.4871795 C32.4166667,20.3076923 32.3666667,20.974359 32.2833333,21.2991453 C32.25,21.4358974 32.2,21.4871795 32.0666667,21.5213675 C31.7333333,21.5726496 30.75,21.6410256 29.2833333,21.6410256 L24.9166667,21.6239316 Z M28.3,19.2649573 C29.15,19.2649573 29.45,19.2649573 29.5333333,19.2307692 C29.5333333,19.1111111 29.5666667,19.025641 29.5666667,18.9401709 C29.5666667,18.017094 29.1333333,16.3076923 27.4,16.3076923 C25.8,16.3076923 25.1166667,17.7435897 24.95,19.2649573 L28.3,19.2649573 Z" id="Combined-Shape"></path>
        </g>
    </g>
</svg>