<?xml version="1.0" encoding="UTF-8"?>
<svg width="40px" height="40px" viewBox="0 0 40 40" version="1.1" xmlns="http://www.w3.org/2000/svg" xmlns:xlink="http://www.w3.org/1999/xlink">
    <!-- Generator: Sketch 53.2 (72643) - https://sketchapp.com -->
    <title>icon-devices</title>
    <desc>Created with Sketch.</desc>
    <defs>
        <linearGradient x1="100%" y1="50%" x2="0%" y2="50%" id="linearGradient-1">
            <stop stop-color="#905CF4" offset="0%"></stop>
            <stop stop-color="#6758F3" offset="100%"></stop>
        </linearGradient>
    </defs>
    <g id="icon-devices" stroke="none" stroke-width="1" fill="none" fill-rule="evenodd">
        <path d="M5,14 C4.44771525,14 4,14.4477153 4,15 L4,35 C4,35.5522847 4.44771525,36 5,36 L15,36 C15.5522847,36 16,35.5522847 16,35 L16,15 C16,14.4477153 15.5522847,14 15,14 L5,14 Z M5,10 L15,10 C17.7614237,10 20,12.2385763 20,15 L20,35 C20,37.7614237 17.7614237,40 15,40 L5,40 C2.23857625,40 3.38176876e-16,37.7614237 0,35 L0,15 C-3.38176876e-16,12.2385763 2.23857625,10 5,10 Z M4,6 C4,7.1045695 3.1045695,8 2,8 C0.8954305,8 0,7.1045695 0,6 L0,5 C0,2.23857625 2.23857625,-1.77635684e-15 5,-1.77635684e-15 L35,-1.77635684e-15 C37.7614237,-1.77635684e-15 40,2.23857625 40,5 L40,23 C40,25.7614237 37.7614237,28 35,28 L27,28 C26.4477153,28 26,28.4477153 26,29 L26,35 C26,35.5522847 26.4477153,36 27,36 L32,36 C33.1045695,36 34,36.8954305 34,38 C34,39.1045695 33.1045695,40 32,40 L27,40 C24.2385763,40 22,37.7614237 22,35 L22,29 C22,26.2385763 24.2385763,24 27,24 L35,24 C35.5522847,24 36,23.5522847 36,23 L36,5 C36,4.44771525 35.5522847,4 35,4 L5,4 C4.44771525,4 4,4.44771525 4,5 L4,6 Z M10,32 C8.8954305,32 8,31.1045695 8,30 C8,28.8954305 8.8954305,28 10,28 C11.1045695,28 12,28.8954305 12,30 C12,31.1045695 11.1045695,32 10,32 Z" id="Combined-Shape" fill="url(#linearGradient-1)" fill-rule="nonzero"></path>
    </g>
</svg>